# xmcd
#
# Track frame offsets: 
#        150
#        19640
#        40120
#        69270
#        83870
#        104075
#        125792
#        149750
#
# Disc length: 2267 seconds
#
# Revision: 5
# Processed by: cddbd v1.5.2PL0 Copyright (c) Steve Scherf et al.
# Submitted via: ExactAudioCopy v1.3
#
DISCID=7108d908
DTITLE=Louis Tillett - A Cast of Aspersions
DYEAR=1990
DGENRE=Rock
TTITLE0=Carousel
TTITLE1=Condemned to Live
TTITLE2=From Me to You
TTITLE3=Dig it Up
TTITLE4=Liferaft
TTITLE5=Long Walk Home
TTITLE6=Children of the Cave
TTITLE7=Midnight Witch
EXTD=
EXTT0=
EXTT1=
EXTT2=
EXTT3=
EXTT4=
EXTT5=
EXTT6=
EXTT7=
PLAYORDER=
